<?xml version="1.0" encoding="utf-8"?>
<!-- Generator: Adobe Illustrator 19.1.0, SVG Export Plug-In . SVG Version: 6.00 Build 0)  -->
<svg version="1.1" xmlns="http://www.w3.org/2000/svg" xmlns:xlink="http://www.w3.org/1999/xlink" x="0px" y="0px"
	 viewBox="0 0 1200 1200" style="enable-background:new 0 0 1200 1200;" xml:space="preserve">
<style type="text/css">
	.st0{display:none;}
	.st1{display:inline;fill:#F5F5F5;stroke:#000000;stroke-miterlimit:10;}
	.st2{fill:#CCCCCC;stroke:#000000;stroke-miterlimit:10;}
	.st3{stroke:#000000;stroke-miterlimit:10;}
	.st4{fill:#F0AD4E;stroke:#000000;stroke-miterlimit:10;}
	.st5{fill:#D9534F;stroke:#000000;stroke-miterlimit:10;}
	.st6{fill:none;stroke:#000000;stroke-miterlimit:10;}
	.st7{fill:#FFDFC4;stroke:#000000;stroke-miterlimit:10;}
	.st8{fill:#5590CC;stroke:#000000;stroke-miterlimit:10;}
	.st9{fill:#FFFFFF;stroke:#000000;stroke-miterlimit:10;}
	.st10{fill:#FAF0BE;stroke:#000000;stroke-miterlimit:10;}
	.st11{fill:#42210B;stroke:#000000;stroke-miterlimit:10;}
	.st12{fill:#CB6828;stroke:#000000;stroke-miterlimit:10;}
	.st13{fill:#C69C6D;stroke:#000000;stroke-miterlimit:10;}
	.st14{fill:#8C6239;stroke:#000000;stroke-miterlimit:10;}
	.st15{fill:#E5C298;stroke:#000000;stroke-miterlimit:10;}
	.st16{fill:#D4648D;stroke:#000000;stroke-miterlimit:10;}
	.st17{fill:#A67C52;stroke:#000000;stroke-miterlimit:10;}
</style>
<g id="Background" class="st0">
	<rect class="st1" width="1200" height="1200"/>
	<rect y="285" class="st2" width="1200" height="630"/>
</g>
<g id="Railing">
	<rect x="1919" y="579" style="fill:none;" width="6" height="0"/>
</g>
<g id="Layer_5">
	<path class="st3" d="M755.1,543.1c0.1,0.6,0.4,1.1,0.5,1.7c0.1,0.3,0,0.7,0,1c-0.1,0.9-0.2,1.8-0.3,2.7c-0.1,0.5-0.1,0.9-0.1,1.4
		c0,0.9,0.2,1.7,0.5,2.6c0.5,1.8,1.3,3.5,2.2,5.1c-0.5,0.2-0.9-0.3-1.1-0.7c-1.4-2.5-1.3-5.7-2.3-8.4c-0.6-1.5-1.5-3-1.1-4.6"/>
	<path class="st4" d="M749.7,541.7c1.8,2.8,7.6,3.5,8.1,1.9c0.8-3.7,2-7.3,3.6-10.7c0.5-1.1,1.1-2.3,1.6-3.4
		c7.9-16.1,28.2-20.9,44.7-18.2c1.3,0.2,2.7,0.4,4,0.7c2.6,0.6,5.2,1.3,7.8,2.3c1.2,0.6,2.4,1.3,3.6,2.1c1,0.7,1.9,1.4,2.8,2.1
		c1.8,1.5,3.5,3.2,5,5c1.3,0.1,2.6-0.2,3.5-0.9c0.3-1.2,0.9-2.3,1.3-3.5c1-11.9-6.7-21.4-16.8-25.7c-1.4-0.6-2.9-1.1-4.5-1.5
		c-10.3-1.2-20.8-1.9-31.4-0.8c-1.3,0.1-2.6,0.3-4,0.5c-4.6,0.3-9.2,1.6-13.3,3.6c-1.4,0.7-2.7,1.5-3.9,2.3
		c-6.3,4.6-10.8,11.3-13.1,18.6c-0.5,1.5-0.8,3-1.1,4.5c-1.1,6.1-1,12.3,0.8,18.2C748.9,539.8,749.3,540.7,749.7,541.7z"/>
	<path class="st5" d="M133.1,634.7c-12.5-4.9-17.1-0.4-21.5,0.4c-5.4-3-6.8-9.5-19.8-8.8c-14.9,0.8-26.7,18.1-26.3,39.9
		c0.3,21.8,12.7,39.3,27.6,39.1c1.6,0,3.2-0.3,4.8-0.7c1.5,1.3,3.2,2.3,5,3.1c13.7,5.7,31.7-6,40.1-26.1
		C151.2,661.4,146.9,640.2,133.1,634.7z"/>
	<path class="st6" d="M111.4,635.8c0.2-1-0.3-2-0.5-3c-0.4-2.6,1.3-5,3.2-6.8c1.7-1.7,3.6-3.1,5.8-4"/>
</g>
<g id="Stairs">
	
		<ellipse transform="matrix(-0.4716 0.8818 -0.8818 -0.4716 2346.9104 563.6959)" class="st7" cx="1004.6" cy="985" rx="24.2" ry="21.9"/>
	
		<ellipse transform="matrix(-0.4716 0.8818 -0.8818 -0.4716 2362.8091 889.3229)" class="st7" cx="914.9" cy="1152.6" rx="24.2" ry="21.9"/>
	<path class="st8" d="M932.5,1045.2c-22.7-12.1-29.3-44.1-14.8-71.3c14.6-27.2,42.5-33.5,67.5-27.3c38.1,9.4,29.3,44.1,14.8,71.3
		C985.5,1045.1,955.3,1057.4,932.5,1045.2z"/>
	<path class="st8" d="M925,1059.4c-22.7-12.1-52.9,0.1-67.5,27.3c-14.6,27.2-4.2,53.9,14.8,71.3c28.9,26.5,52.9-0.1,67.5-27.3
		C954.3,1103.4,947.7,1071.5,925,1059.4z"/>
	<circle class="st7" cx="934.7" cy="1056.6" r="84.1"/>
	<circle class="st7" cx="1006.9" cy="1095.2" r="22"/>
	<circle class="st9" cx="975.5" cy="1104" r="22"/>
	<circle class="st9" cx="996.4" cy="1065" r="22"/>
	<circle class="st3" cx="1011.5" cy="1073.6" r="4.8"/>
	<circle class="st3" cx="991.1" cy="1111.7" r="4.8"/>
	<path class="st10" d="M889.7,1138.7c6.2,3.1,12.9,5,19.2,3.6c4.6,1.1,9.2,1.8,14,2.1c3.2,0.2,6.6,0.2,10-0.1c1.2,1,2,2.4,2.3,3.9
		c0.7,4.1,4.9,5.9,8.1,3.1c4.8-4.3,8-10,10.2-16.1c2-0.1,3.9-1.4,4.3-3.6c0.5-3.1,0.9-6.3,1.2-9.4c0.3,0.5,0.6,0.9,0.9,1.3
		c1.9,2.8,6.6,3.1,8.2-0.2c2.2-4.7,3.1-9.5,2.9-14.2c2.6,2,6.6,0.4,7.3-2.8c1.3-5.4,1.9-10.9,1.7-16.4c2.1,0,4.2-1.6,4.8-3.7
		c1.7-6.3,2.4-12.8,2.1-19.2c0.7-0.6,1.3-1.2,1.9-2c0.1,0,0.2,0.1,0.3,0.1c2.6,0.9,4.9-1.4,5.6-3.6c0.6-1.9,1-3.7,1.1-5.6
		c5.2,1.4,8.2-4.1,9.9-10.6c1.3-0.2,2.6-0.6,3.8-1.2c1.9,3.7,7.9,3.5,8.8-1c1.7-8.5-0.1-16.9-4.8-23.8c2.4-8.4-2-18-6.9-24.6
		c-5.8-7.9-14.2-13.4-23.6-16.1c-1.4-0.4-2.7-0.1-3.7,0.7c-2-1-3.9-2-5.9-2.8c-1.4-0.6-2.9-1.2-4.3-1.8c-5-6.5-13.9-9.7-21.8-5.6
		c-0.2,0.1-0.4,0.2-0.6,0.3c-8.4-0.9-16.8-0.5-25.1,0.9c-1.5-1.2-3-1.9-4.5-1.9c-7,0.3-14.6,5.4-19.8,10.3
		c-7.6,3.9-14.8,8.9-21.4,14.4c-4.5-0.2-8.1,2-11.5,5.6c-4.6,4.8-8.8,10-12.6,15.5c-3,4.4-4,9.3-4.6,14.4c-1.3,3.2-2.3,6.6-3,10
		c-2.1,11-1.3,23.3,1.1,34.2c1.7,8.1,5.8,15.2,10.6,21.8c-1.9,1-3.4,3.2-2.8,5.6c0.7,3,2.2,5.7,4.2,7.8c5.3,8.4,12.7,15.3,21.3,20.1
		C880.6,1132.7,884.6,1136.2,889.7,1138.7z"/>
	
		<ellipse transform="matrix(-0.9252 0.3795 -0.3795 -0.9252 773.3881 83.6708)" class="st11" cx="378.4" cy="118.1" rx="23.5" ry="21.3"/>
	
		<ellipse transform="matrix(-0.9252 0.3795 -0.3795 -0.9252 470.984 283.494)" class="st11" cx="207.5" cy="188.2" rx="23.5" ry="21.3"/>
	<path class="st12" d="M287.2,118.6c-9.5-23.2,5.3-51.2,33.1-62.6c27.8-11.4,52.6,1.2,67.5,21.3c22.8,30.6-5.3,51.2-33.1,62.6
		S296.7,141.7,287.2,118.6z"/>
	<path class="st12" d="M272.8,124.5c-9.5-23.2-39.7-32.7-67.5-21.3s-36.6,37.8-33.1,62.6c5.3,37.8,39.7,32.7,67.5,21.3
		S282.3,147.7,272.8,124.5z"/>
	<circle class="st11" cx="281.8" cy="128.5" r="81.7"/>
	<circle class="st11" cx="312" cy="202.1" r="21.3"/>
	<circle class="st9" cx="283" cy="189.3" r="21.3"/>
	<circle class="st9" cx="322.8" cy="173" r="21.3"/>
	<circle cx="328.8" cy="188.7" r="4.7"/>
	<circle cx="289.9" cy="204.7" r="4.7"/>
	<path class="st3" d="M205.8,163.6c0.7,0.9,1.6,2.8,2.4,2.4c0,0.9,0.1,1.8,0.4,2.8c0.3,0.9,0.8,1.5,1.5,2c1.1,3.2,2.8,5.9,5.5,8.3
		c-0.6,5.9,4.1,8.7,8.3,7.9c0.1,0.2,0.2,0.4,0.3,0.6c0.1,0.1,0.1,0.2,0.2,0.3c0.6,2.4,2.2,4.6,4,5.4c0.1,0.7,0.5,1.4,1.1,1.9
		c0.7,0.5,1.6,0.9,2.5,1.2c1,2,3.2,3.4,5.9,3.2c0.2,0,0.5-0.1,0.7-0.1c1.3,1.5,3.2,2.2,4.9,2.1c1.9,0.9,4.1,0.8,5.6-0.8
		c3.4,0.6,5.3-1.2,5.9-3.9c1.9,0.4,3.9,0.2,5.7-0.7c0.2,0,0.4,0,0.7,0c2.4,1.5,5.7,1.3,7.3-2.3c0.2,0.2,0.4,0.4,0.6,0.6
		c3.8,2.9,10,0.2,13.4-3.9c2.1,0.1,4.1-0.8,5.3-2.2c0.3,0,0.7-0.1,1-0.2c1.4-0.6,2.7-1.2,3.9-2c2.9,1.2,6-0.7,7.1-3.6
		c0.1-0.1,0.2-0.1,0.3-0.1c0.7,0.2,1.4,0.3,2.1,0.2c2.1-0.3,4-0.8,5.6-1.8c1.4-0.3,2.8-1,3.9-1.9c0.6-0.5,1-1.1,1.3-1.7
		c0.3,0.3,0.6,0.5,1,0.7c1.5,0.6,3.3-0.1,3.9-1.6c0.1-0.3,0.3-0.7,0.4-1c0.4,0.2,0.8,0.3,1.3,0.5c1,0.2,2.2-0.4,2.8-1.1
		c0.5-0.7,0.9-1.3,1.1-1.9c0.2-0.1,0.3-0.3,0.5-0.4c2.3,0.9,5.3,0,7.6-2.2c3,0.7,6.7-0.5,8.5-2.7c1.1-1.4,1.9-2.8,2.5-4.2
		c0,0,0.1-0.1,0.1-0.1c0.1,0,0.2,0,0.4,0c0.6,0.6,1.4,0.9,2.3,0.8c2.3-0.3,3-0.7,4.4-2.4c0.1,0,0.1-0.1,0.2-0.1
		c0.9-0.1,1.8-0.3,2.7-0.8c0.5-0.1,0.8-0.3,1.1-0.6c0.5-0.4,1-0.8,1.6-1.3c1,0.1,2.1-0.1,3.4-0.6c3.2-1.3,4.9-5.4,3.5-8.5
		c0.4-0.7,0.7-1.4,0.8-2.2c1.6-0.1,3-1.8,2.7-3.4c0-0.1,0-0.1,0-0.2c0.7-0.8,1.1-2.1,1.1-3.5c0.2-0.4,0.4-0.8,0.6-1.2
		c1.9-0.5,3.2-3.1,1.7-4.7c-0.3-0.3-0.5-0.5-0.8-0.8c0.7-0.6,1.3-1.3,1.8-2.2c1-1.7,0.7-3.5-1.1-4.5c0,0,0,0,0-0.1
		c0-1.3-0.7-2-1.5-2.3c-0.2-0.7-0.4-1.5-0.7-2.2c-0.1-0.8-0.4-1.6-0.7-2.3c-0.1-0.4-0.2-0.9-0.3-1.3c-0.4-1.7-0.6-3.4-0.7-5.1
		c0.4-0.6,0.7-1.2,0.7-1.9c0.2-2.6-0.3-4.6-2-6.7c-0.4-0.5-0.8-0.9-1.3-1.2c0.1-0.7,0-1.4-0.2-2c-0.6-2.1-2.2-3.7-4.2-4.4
		c-0.1-0.5,0-1.2,0.2-1.9c0.5-1.8-1-4.3-2.7-4.8c-0.7-0.2-1-4.5-1.2-5.2c-0.6-2.1-1.5-3.9-2.6-5.8c-1.1-1.8-2.7-3.3-4.3-4.6
		c-0.9-0.8-2.1-1.5-3.1-2c-0.4-0.2-0.7-0.4-1-0.5c-0.1-0.3-0.2-0.5-0.4-0.8c-0.6-1-1.3-2.1-1.9-3.1c-1.1-1.9-3.1-2.1-4.8-1.4
		c0-0.1,0-0.2,0-0.3c-0.5-5-4.6-7.2-8.8-6.4c-3-3-5.3-7.9-8.9-9.7c-3.3-1.7-6.6,0.1-10.2-0.2c-3.8-0.3-7.5-1.9-11-3.3
		c-1.3-0.5-2.5-0.4-3.4,0c-10.3-2-20.8-2.9-31.2-1.1c-12.9,2.2-24.4,9.7-35.8,15.8c-1.9,1-2.9,2.6-2.8,4.7c0.1,1.7-5.2,2.9-6.3,3.3
		c-2.2,0.9-3.9,2.3-5.5,4c-3.1,3.2-3.2,8.5-4.5,12.6c-1.3,4.4-4.4,7.9-5.6,12.3c-0.8,3-1,5.9-0.7,8.8c-1.5,0.5-3,1.5-4,3
		c-3.6,5-2.6,11.1-1.9,16.8c0.9,7.1,2.4,14.1,4.3,21c1,3.8,2.2,7.5,3.6,11.1C204.3,161,205,162.5,205.8,163.6z M365.6,124.6
		c-0.7,0.2-1.3,0.6-1.8,1.3c-0.5-1-1.2-1.6-1.8-2.1C363.3,123.8,364.5,124.1,365.6,124.6z M351.4,129.5c0,0.1,0.1,0.2,0.1,0.3
		c-0.2,0.2-0.4,0.4-0.5,0.6C351.2,130.1,351.3,129.8,351.4,129.5z"/>
</g>
<g id="Layer_4">
	
		<ellipse transform="matrix(0.9369 0.3497 -0.3497 0.9369 251.8821 12.5733)" class="st13" cx="91.1" cy="703.9" rx="24" ry="21.7"/>
	
		<ellipse transform="matrix(0.9369 0.3497 -0.3497 0.9369 286.0586 -44.9875)" class="st13" cx="267.6" cy="769.8" rx="24" ry="21.7"/>
	<path class="st8" d="M159.8,766.7c-8.9,23.9-39.4,34.6-68.1,23.9s-38.5-37.3-35.8-62.7C60,689.3,95.3,693.3,124,704
		S168.7,742.8,159.8,766.7z"/>
	<path class="st8" d="M174.7,772.3c-8.9,23.9,7.1,52,35.8,62.7c28.7,10.7,53.5-3,68.1-23.9c22.2-31.9-7.1-52-35.8-62.7
		S183.6,748.3,174.7,772.3z"/>
	<circle class="st13" cx="170.7" cy="763.1" r="83.4"/>
	<circle class="st13" cx="199.1" cy="687" r="21.8"/>
	<circle class="st9" cx="211.9" cy="716.7" r="21.8"/>
	<circle class="st9" cx="170.8" cy="701.4" r="21.8"/>
	<circle cx="177.2" cy="685.4" r="4.8"/>
	<circle cx="217.4" cy="700.4" r="4.8"/>
	<path class="st14" d="M252.9,799.5c1-4.7,1.3-9.6,1.4-14.4c1.3-6.9,1.5-14.1,1.2-21.3c0.4-0.6,0.9-1.3,1.1-1.9
		c1.6-4.4,0.8-8.7-1.7-12.6c-0.4-0.6-0.8-1.1-1.2-1.7c-1-4.2-2.8-7.9-5.6-11.1c2.2-0.5,3.9-3.1,2-5.1c-0.2-0.2-0.5-0.5-0.5-0.6
		c0,0,0,0,0,0c0,0-0.1,0-0.1,0c-0.6-0.5-1.2-0.9-1.8-1.1c-3.3-2.1-6.9-3.7-10.7-5c-1.8-0.6-3.7-1-5.6-1.3c-2.7-0.5-3.1-1.9-4.5-4
		c-2-3-8-3.9-11.1-4.8c-0.9-0.3-1.9-0.5-2.8-0.7c-0.8-0.6-1.6-1.1-2.5-1.6c-2.2-1.3-4.7-2.3-7.1-3.2c-2-3.7-6.4-5.9-10.8-7
		c-4.2-1.1-8.5-1.8-12.8-2.7c-1-0.2-10.3-2-13.7-2.5c0-1.6-1-3.4-2.9-3.6c-2.7-0.4-5.4-0.7-8.1-1.1c-1.1-0.1-2.2-0.3-3.2-0.4
		c-0.5-0.1-1.1-0.1-1.6-0.2c-0.4-0.1-0.7-0.2-1.1-0.3c1.7-1.3,1.8-4.4-0.7-5.7c-0.6-0.3-1.2-0.5-1.7-0.5c-7.2-1.9-14.4-0.5-20.4,3.9
		c-0.2,0.2-0.4,0.3-0.6,0.5c-4,1.5-7.6,4.3-11.1,7.5c-1.5-0.2-3.1,0-4.6,0.6c-5.7,2.3-6.9,7.6-9.7,12.6c-2.5,4.4-8,6.5-11.2,10.4
		c-1.5,1.8-2,4.2-2.4,6.5c-0.8,4.2-2.9,6.6-5.4,10c-3,4.1-2.7,8.8-1.1,13.4c0.4,1.1,0.9,2.1,1.4,3.1c-0.2,1.4-0.3,2.7-0.4,4.1
		c-0.5,6.5,0.1,12.9,1.4,19.3c-0.5,1.7-0.7,3.4-0.6,5.2c0.4,6.2,3.4,11.3,6.6,16.4c3.7,5.9,7.5,11.9,11.2,17.8
		c3.4,5.3,6.2,9.2,11.7,11.9c6.3,5.9,14.9,9.4,23.5,12.1c4.2,3.6,7.9,7.3,13.3,9.6c9.4,4,17.9,1.3,26.8-1c3,0.2,5.9,0.2,8.9,0.1
		c3.9-0.2,7.6-0.6,11.2-1.4c2.2,0.2,4.3,0.2,6.5,0c4.8-0.5,9.1-3.3,12.6-6.5c2.4-2.1,4.5-4.6,6.4-7.1c5.5-4.7,10.9-9.6,15.7-15
		c3.5-1.6,7.1-2.7,10-5.7C250.2,809.6,251.8,804.5,252.9,799.5z"/>
	
		<ellipse transform="matrix(-0.9961 8.825134e-02 -8.825134e-02 -0.9961 2011.2341 852.9009)" class="st15" cx="986.8" cy="470.9" rx="23.8" ry="21.6"/>
	
		<ellipse transform="matrix(-0.9961 8.825134e-02 -8.825134e-02 -0.9961 1640.4713 902.3351)" class="st15" cx="800.3" cy="487.4" rx="23.8" ry="21.6"/>
	<path class="st12" d="M898.3,444c-2.2-25.3,20.5-47.9,50.8-50.6c30.3-2.7,50.5,17,58.9,40.9c12.8,36.5-20.5,47.9-50.8,50.6
		C926.9,487.6,900.5,469.3,898.3,444z"/>
	<path class="st12" d="M882.6,445.4c-2.2-25.3-28.6-43.6-58.9-40.9s-46.7,25.6-50.8,50.6c-6.2,38.1,28.6,43.6,58.9,40.9
		C862.1,493.3,884.8,470.7,882.6,445.4z"/>
	<circle class="st15" cx="890.1" cy="451.9" r="82.8"/>
	<path class="st15" d="M875.7,534.2c-4.6-11,7.7-22.4,19.6-23.5s27.2,8.3,23.5,19.6c-3.5,10.8-7.7,22.4-19.6,23.5
		C887.2,554.9,882.5,550.5,875.7,534.2z"/>
	<circle class="st9" cx="873" cy="511.2" r="21.6"/>
	<circle class="st9" cx="916.4" cy="507.3" r="21.6"/>
	<circle cx="917.5" cy="524.4" r="4.7"/>
	<circle cx="875" cy="528.1" r="4.7"/>
	<path class="st11" d="M804.8,459.4c0.4,1.5,0.8,3.1,1.2,4.6c-0.2-0.8-0.1-0.3,0,0.4c0,3.4,0.2,6.7,0.9,10c0.6,2.7,1.1,4.9,2.1,7.4
		c1.2,2.9,3,5.3,5.3,7.1c3.5,9.8,10,17.7,20.1,22.2c11.3,5,24.5,4.1,36.7,4.4c12.9,0.2,24.1-2.1,36.3-6.6c3.5-1.3,6.7-3.8,9.9-6.1
		c5.6,1.6,11.5,3.4,17.2,3.4c9.6,0.1,18.4-3.8,26.8-8.5c3.9-2.2,6-6.1,6.7-10.4c4.1-4.9,6.7-11.8,8.1-17.1
		c1.7-6.3,1.5-13.4,1.2-19.9c-0.4-7-1.1-14-2.5-20.9c-0.7-3.2-1.5-6.2-2.5-9.1c0-0.4,0-0.8-0.1-1.2c-0.5-7.1-2.8-13.5-6.8-19.3
		c-3.8-5.5-9-10-14.1-14.2c-5.7-4.7-11.5-9.1-17.8-12.9c-10.2-6.1-22-9.1-33.7-12.1c-1.7-1.6-2.5-4-2.2-6.2c1.2-0.9,2.4-2,3.5-3.1
		c2.9-3,5-6.7,8-9.6c4.3-4.1-2.8-10-7.1-5.9c-0.5,0.4-0.9,0.9-1.3,1.4c-1.4-1.1-3.6-1.4-5.4-0.5c-1.2-1-2.9-1.5-4.4-0.7
		c-1.6,0.8-3.3,1.2-5.1,1.6c-1.3-0.4-2.9-0.2-4.1,0.6c-1.3-1.2-3.3-1.5-4.9-1c-0.8,0.2-1.5,0.6-2,1.1c-2.2-0.2-4.5-0.1-6.4,0.2
		c-2.6,0.3-5.5,0.5-7.3,2.6c-0.3,0.4-0.6,0.8-0.7,1.2c-1.6-0.9-3.2-1.9-4.8-2.9c-4.8-3-8.2,4.2-4.9,7.7c3.3,3.5,7,6.4,10.9,8.9
		c0.2,0.4,0.5,0.8,0.9,1.2c0.8,0.8,1.6,1.5,2.5,2.1c0.6,0.5,0.6,1.1,0.3,1.7c-2.3,1.4-4.6,2.9-6.8,4.4c-8,5.6-15,12.5-22,19.3
		c-5.1,5-10.3,10.1-13.7,16.4c-7.4,9.7-13.9,20.5-17.9,32.1C801.5,442.5,802.2,450.2,804.8,459.4z"/>
	<line class="st6" x1="898" y1="357.5" x2="865" y2="361.1"/>
	<ellipse class="st16" cx="403.8" cy="448.3" rx="96.4" ry="96.2"/>
	<path class="st13" d="M501.1,457.8c-1.2-3.5-2.9-6.6-4.6-9.9c-0.9-1.8-1.6-3.8-2.3-5.9c0.8-0.6,1.7-1.2,2.5-1.9
		c4.6-3.6,3.8-11.4,0-15.2c-3.6-3.6-8.3-3.8-12.4-1.8c-2.2-3.6-4.4-7.1-6.5-10.7c-1.1-1.8-2.1-3.5-3.2-5.3c0.3-0.1,0.5-0.3,0.8-0.4
		c12.2-6.5,1.4-25-10.8-18.5c-0.2,0.1-0.4,0.2-0.5,0.3c-3.3-6.9-5.4-13.9-10.4-20.1c-0.5-0.6-1-1.1-1.6-1.5
		c-1.8-4.5-6.4-8.1-12.5-6.7c-9.5,2.1-18.1,6.3-26.4,11c-2.9-5-5.9-10-8.9-15c-7-11.9-25.5-1.1-18.5,10.8c2.9,5,5.9,10,8.8,15.1
		c-5.9,3.3-11.9,6.3-18.2,8.5c-1.1,0.4-2.2,0.8-3.3,1.2c-0.3-0.6-0.5-1.2-0.8-1.7c-2.9-7-4.5-13.8-9.9-19.5
		c-9.4-10.2-24.6,5-15.2,15.2c3.2,3.4,4.4,9.4,6.1,14.1c-2.7,1.3-5.4,2.6-8.1,4c-3.4,1.8-6.8,3.6-10.3,5.3
		c-0.6-5.8-4.5-10.7-10.7-10.7c-5.4,0-11.3,4.9-10.7,10.7c0.2,2.1,0.6,4.2,1,6.3c-3.9,1.6-6.7,4.9-6.7,9.7c0,5.3,4.9,11.4,10.7,10.7
		c1.3-0.2,2.6-0.4,3.9-0.6c1.6,3,3.4,6.1,5.2,9.1c1.4,2.4,2.6,4.8,3.7,7.3c-6.4,3.1-12.9,6.3-19.3,9.4c-5.3,2.6-6.6,9.9-3.8,14.7
		c3.1,5.3,9.4,6.4,14.7,3.8c5.5-2.7,11-5.4,16.5-8c1,2.4,2.1,4.8,3.3,7.1c1.9,3.7,4.6,6.8,7.3,10c-5.8,2.2-11.4,4.7-16.8,7.9
		c-11.9,7-1.1,25.5,10.8,18.5c5.4-3.2,11.1-5.6,17-7.8c0.4,0.9,0.9,1.7,1.3,2.6c2.9,5.3,6.2,10.3,9.6,15.3
		c-3.1,2.6-4.7,6.4-3.5,10.8c1.4,5.2,7.8,9.7,13.2,7.5c1-0.4,2.1-0.8,3.1-1.2c0.4,0.5,0.9,1.1,1.3,1.6c3.6,4.6,11.4,3.8,15.2,0
		c2.8-2.8,3.5-6.2,2.8-9.5c7.2-3,14.3-6.2,21.3-9.6c2.1,2.8,4.3,5.6,6.6,8.3c3.8,4.5,11.3,3.9,15.2,0c4.4-4.4,3.8-10.7,0-15.2
		c-0.9-1.1-1.8-2.2-2.6-3.2c5.5-3.2,11-6.7,16.6-9.7c0.1,0.2,0.1,0.4,0.2,0.6c4.4,13,25.1,7.4,20.7-5.7c-0.5-1.5-1-3-1.6-4.4
		c3.8-2,7.5-4.1,11-6.7c4.7-3.5,7-9.2,3.8-14.7c-0.8-1.3-1.9-2.4-3.2-3.4C498,470.3,503.6,465.3,501.1,457.8z M459.3,423.3
		c2.1,3.5,4.2,7.1,6.3,10.6c-6,2.7-12.2,5.1-17.8,8.4c-0.5,0.3-1,0.6-1.5,0.9c-1.8-2.5-3.6-5.1-5.4-7.7c-2.1-3.2-4.1-6.5-6-9.8
		c0.5-0.2,1-0.4,1.5-0.6c6.6-2.4,12.8-5.2,19-8.1C456.8,419.1,458.1,421.2,459.3,423.3z M438.1,383.1c0.1,0.2,0.3,0.4,0.4,0.5
		c3.2,4,4.7,9.6,6.7,14.6c-5.3,2.5-10.7,4.9-16.3,6.9c-1,0.4-2,0.8-3,1.2c-1.1-3-2-6-2.8-9c-0.6-2.1-1.1-4.2-1.6-6.2
		C426.8,388.1,432.3,385.2,438.1,383.1z M415.3,434.4c1.7,3.1,3.5,6.1,5.3,9.1c2.3,3.8,4.8,7.4,7.5,11c-5.5,2.8-11.4,4.6-17.3,6.7
		c-0.1,0-0.2,0.1-0.3,0.1c-2.9-4.8-5.9-9.6-9-14.2c-1-1.4-2-2.9-3-4.3c0.3-0.1,0.6-0.3,0.9-0.4C404.7,439.8,410,437.1,415.3,434.4z
		 M402.1,402.1c0.1,0.3,0.1,0.6,0.2,0.9c1,4.1,2.2,8.1,3.8,12.1c-5.2,2.6-10.4,5.2-15.7,7.8c-0.8,0.4-1.6,0.8-2.4,1.2
		c-1.7-4.3-3.2-8.8-4.9-13.1C389.8,408.6,396,405.5,402.1,402.1z M348.6,438.2c-1.7-3.2-3.7-6.3-5.7-9.5c6.9-3,13.6-6.6,20.4-9.8
		c0.3,0.6,0.5,1.2,0.8,1.8c1.7,4.2,3.2,8.5,4.8,12.7c-6.1,3-12.3,6-18.4,9C350,441,349.3,439.6,348.6,438.2z M372.5,480.5
		c-0.5,0.2-1.1,0.4-1.6,0.6c-2.9-3.9-6.3-7.5-9-11.6c-1.4-2.2-2.6-4.6-3.7-7.1c6.9-3.4,13.8-6.7,20.7-10.1c2,2.9,4.1,5.8,6.1,8.7
		c2.2,3.2,4.3,6.5,6.3,9.9C385.2,474.4,379.2,477.9,372.5,480.5z M391.8,516.4c-3.8-5.3-7.3-10.8-10.6-16.4c0.2-0.1,0.3-0.1,0.5-0.2
		c7.3-2.9,13.9-6.9,20.7-10.7c3.5,6,7.1,12,10.8,17.9C406,510.4,398.9,513.5,391.8,516.4z M431.8,497.2c-3.6-5.6-7-11.3-10.3-17.1
		c6.3-2.2,12.6-4.5,18.5-7.6c0.4-0.2,0.9-0.5,1.3-0.7c3.5,4.6,6.9,9.3,10,14.1C444.7,489.5,438.4,493.5,431.8,497.2z M470.3,476.6
		c-3.4-5.5-7.2-10.8-11.1-16c5.3-3.2,10.8-5.7,16.3-8.3c0.1,0.2,0.1,0.3,0.2,0.5c1.1,3.8,3.5,7,4.7,10.7c0.8,2.4,2.2,4.2,3.8,5.4
		c-1.4,0.2-2.7,0.7-3.9,1.5C477.2,472.7,473.8,474.7,470.3,476.6z"/>
	<line class="st6" x1="369" y1="433.4" x2="379" y2="452.3"/>
	<line class="st6" x1="388.1" y1="424.1" x2="398.5" y2="442.8"/>
	<line class="st6" x1="410.5" y1="461.3" x2="391.3" y2="470.9"/>
	<line class="st6" x1="421.5" y1="480.2" x2="402.3" y2="489.1"/>
	<line class="st6" x1="406.1" y1="415.1" x2="425.9" y2="406.3"/>
	<line class="st6" x1="435" y1="425.7" x2="415.3" y2="434.4"/>
	<line class="st6" x1="428.1" y1="454.6" x2="441.3" y2="471.8"/>
	<line class="st6" x1="446.4" y1="443.3" x2="459.2" y2="460.6"/>
	<line class="st6" x1="470.3" y1="476.6" x2="451.4" y2="485.9"/>
	<line class="st6" x1="460.9" y1="505.1" x2="481" y2="493.3"/>
	<line class="st6" x1="444.3" y1="514.9" x2="431.8" y2="497.2"/>
	<line class="st6" x1="413.1" y1="507.1" x2="425.2" y2="524.9"/>
	<line class="st6" x1="391.8" y1="516.4" x2="371.8" y2="525.3"/>
	<line class="st6" x1="349.8" y1="488.8" x2="360.8" y2="507.5"/>
	<line class="st6" x1="370.9" y1="481.1" x2="381.2" y2="500.1"/>
	<line class="st6" x1="358.2" y1="462.4" x2="339.2" y2="471.7"/>
	<line class="st6" x1="331.3" y1="451.8" x2="350.6" y2="442.4"/>
	<line class="st6" x1="342.9" y1="428.7" x2="334.9" y2="409.2"/>
	<line class="st6" x1="322.3" y1="435.4" x2="316.7" y2="419"/>
	<line class="st6" x1="363.4" y1="418.9" x2="383.1" y2="411"/>
	<line class="st6" x1="373" y1="391.9" x2="353.3" y2="399.9"/>
	<line class="st6" x1="394.6" y1="382.2" x2="402.1" y2="402.1"/>
	<line class="st6" x1="413.2" y1="371.3" x2="421.5" y2="391.1"/>
	<line class="st6" x1="445.2" y1="398.2" x2="455.5" y2="417"/>
	<line class="st6" x1="465.7" y1="434" x2="484.4" y2="423.2"/>
	<line class="st6" x1="475.6" y1="452.3" x2="494.3" y2="442"/>
	<line class="st6" x1="438.1" y1="383.1" x2="456.5" y2="376.3"/>
	<line class="st6" x1="474.7" y1="407.2" x2="463" y2="387.3"/>
	<path class="st17" d="M403.2,349.6c-55.2,0-100,44.8-100,100c0,55.2,44.8,100,100,100s100-44.8,100-100
		C503.2,394.4,458.5,349.6,403.2,349.6z M403.5,533.9c-46.7,0-84.5-37.8-84.5-84.5c0-46.7,37.8-84.5,84.5-84.5s84.5,37.8,84.5,84.5
		C488,496,450.2,533.9,403.5,533.9z"/>
</g>
</svg>
